# xmcd CD database file
#
# Track frame offsets:
#	150
#	26721
#	54738
#	71680
#	94099
#
# Disc length: 1481 seconds
#
# Revision: 0
# Processed by: cddbd v1.5.1PL2 Copyright (c) Steve Scherf et al.
# Submitted via: CDex 1.51
#
DISCID=4105c705
DTITLE=RAINBAND COMPANY - WEAVER NOVA!
DYEAR=2005
DGENRE=未分類 (日本)
TTITLE0=First Run [Logicker's Dance Mix]
TTITLE1=Hotel Inside [House Inside]
TTITLE2=Fortune Message [September Wind Mix]
TTITLE3=四千年 [Night Flight Disco]
TTITLE4=PANCHIRA ROCK'N ROLL
EXTD=YEAR: 2005
EXTT0=
EXTT1=
EXTT2=
EXTT3=
EXTT4=
PLAYORDER=
